<svg xmlns="http://www.w3.org/2000/svg" viewBox="0 0 207.08 116.45"><title>Asset 3</title><g id="Layer_2" data-name="Layer 2"><g id="Layer_1-2" data-name="Layer 1"><path d="M24.29,40.14a4.06,4.06,0,0,1,1.21-.24c.73,0,1.48.72,2.25,2.17a27.71,27.71,0,0,1,2.11,6.17,32,32,0,0,1,9-6,25,25,0,0,1,9.58-1.75q8.12,0,11.86,4.63T64,59.78v41a2.59,2.59,0,0,1-.37,1.71,2.59,2.59,0,0,1-1.69.36H50.7a2.59,2.59,0,0,1-1.69-.36,2.7,2.7,0,0,1-.36-1.72V63.1c0-3.66-.56-6.3-1.67-7.89s-2.91-2.38-5.39-2.38a12.28,12.28,0,0,0-5.13,1.1,24.8,24.8,0,0,0-5.63,3.91v42.93a2.7,2.7,0,0,1-.36,1.72,2.63,2.63,0,0,1-1.7.36H17.52a2.63,2.63,0,0,1-1.7-.36,2.66,2.66,0,0,1-.36-1.71v-41a31.46,31.46,0,0,0-2.56-13.3,2.76,2.76,0,0,1-.37-1.22c0-.48.32-.85,1-1.09Z" transform="translate(0 -14.4)" style="fill:#1b1818"/><path d="M74.14,53.93a2.55,2.55,0,0,1-1.7-.37,2.57,2.57,0,0,1-.37-1.71v-7.2a2.55,2.55,0,0,1,.37-1.7,2.55,2.55,0,0,1,1.7-.37H96.73a2.57,2.57,0,0,1,1.7.37,2.63,2.63,0,0,1,.36,1.7v56.13a1.6,1.6,0,0,1-2.06,2.07H85.47a2.61,2.61,0,0,1-1.69-.36,2.66,2.66,0,0,1-.36-1.71V53.93ZM90.86,14.76a9.31,9.31,0,0,1,6.89,2.93,9.6,9.6,0,0,1,2.87,7,9.92,9.92,0,0,1-16.9,7,9.69,9.69,0,0,1-2.87-7.14,9.31,9.31,0,0,1,2.93-6.89A9.75,9.75,0,0,1,90.86,14.76Z" transform="translate(0 -14.4)" style="fill:#1b1818"/><path d="M128.7,14.64a10.39,10.39,0,0,1,1.09-.24h.37c.8,0,1.21.69,1.21,2.07V86.26a7.44,7.44,0,0,0,.06,1.1,4.86,4.86,0,0,0,.18.73,3,3,0,0,0,3,2.44,9.77,9.77,0,0,0,1.89-.18c.61-.12,1.32-.31,2.14-.55a2.68,2.68,0,0,1,.85-.12,1,1,0,0,1,1,.73L143,100.5l.12.49a1.15,1.15,0,0,1,.12.5c0,.41-.36.82-1.1,1.22a13.35,13.35,0,0,1-2.86,1.11,31.58,31.58,0,0,1-4,.8,30.86,30.86,0,0,1-4.39.31q-10.77,0-13.8-8.86c-.24-.74-.44-1.42-.6-2a12.27,12.27,0,0,1-.31-2.52c0-1.07-.08-2.39-.12-4s-.06-3.72-.06-6.4v-62a2.1,2.1,0,0,1,1.82-2.31Z" transform="translate(0 -14.4)" style="fill:#1b1818"/><path d="M161.38,76.87q.24,7.92,3.48,11.65t10.06,3.72a29.87,29.87,0,0,0,13.91-3.78,3.2,3.2,0,0,1,1.59-.49c.49,0,.93.36,1.34,1.1l3.05,7.32c.16.41.27.67.31.79a1.9,1.9,0,0,1,.06.55,2.12,2.12,0,0,1-1,1.71,23.39,23.39,0,0,1-4,2.07,42.08,42.08,0,0,1-16.84,3.42q-11.84,0-18.18-6a24.94,24.94,0,0,1-6.77-10.62A44.92,44.92,0,0,1,146,73.21a44.62,44.62,0,0,1,1.89-13.37,30.73,30.73,0,0,1,5.43-10.37,24.26,24.26,0,0,1,8.42-6.65,25.33,25.33,0,0,1,11-2.31q24.15,0,24.16,33.31a4.25,4.25,0,0,1-.49,2.44,2.87,2.87,0,0,1-2.2.61Zm19.28-11.35q-.25-7.56-2.26-10.74t-6.65-3.17q-4.63,0-6.95,3.17t-3.18,10.74Z" transform="translate(0 -14.4)" style="fill:#1b1818"/><path d="M.8,127.44a455.08,455.08,0,0,1,205.5-.5" transform="translate(0 -14.4)" style="fill:none;stroke:#f79518;stroke-miterlimit:10;stroke-width:7px"/></g></g></svg>