<?xml version="1.0" encoding="utf-8"?>
<!-- Generator: Adobe Illustrator 23.0.2, SVG Export Plug-In . SVG Version: 6.00 Build 0)  -->
<svg version="1.1" id="Layer_1" xmlns="http://www.w3.org/2000/svg" xmlns:xlink="http://www.w3.org/1999/xlink" x="0px" y="0px"
	 viewBox="0 0 207.1 116.4" style="enable-background:new 0 0 207.1 116.4;" xml:space="preserve">
<style type="text/css">
	.st0{fill:#FCFCFC;}
	.st1{fill:none;stroke:#F79518;stroke-width:7;stroke-miterlimit:10;}
</style>
<title>Asset 3</title>
<g>
	<g id="Layer_1-2">
		<path class="st0" d="M24.3,25.7c0.4-0.1,0.8-0.2,1.2-0.2c0.7,0,1.5,0.7,2.3,2.2c0.9,2,1.7,4,2.1,6.2c2.6-2.5,5.7-4.5,9-6
			c3-1.2,6.3-1.8,9.6-1.8c5.4,0,9.4,1.5,11.9,4.6c2.5,3.1,3.7,8,3.7,14.7v41c0.1,0.6-0.1,1.2-0.4,1.7c-0.5,0.3-1.1,0.4-1.7,0.4H50.7
			c-0.6,0.1-1.2-0.1-1.7-0.4c-0.3-0.5-0.4-1.1-0.4-1.7V48.7c0-3.7-0.6-6.3-1.7-7.9c-1.1-1.6-2.9-2.4-5.4-2.4c-1.8,0-3.5,0.4-5.1,1.1
			c-2,1-3.9,2.4-5.6,3.9v42.9c0.1,0.6-0.1,1.2-0.4,1.7c-0.5,0.3-1.1,0.4-1.7,0.4H17.5c-0.6,0.1-1.2-0.1-1.7-0.4
			c-0.3-0.5-0.4-1.1-0.4-1.7v-41c0.1-4.6-0.8-9.1-2.6-13.3c-0.2-0.4-0.3-0.8-0.4-1.2c0-0.5,0.3-0.8,1-1.1L24.3,25.7z"/>
		<path class="st0" d="M74.1,39.5c-0.6,0.1-1.2-0.1-1.7-0.4c-0.3-0.5-0.5-1.1-0.4-1.7v-7.2c-0.1-0.6,0.1-1.2,0.4-1.7
			c0.5-0.3,1.1-0.4,1.7-0.4h22.6c0.6-0.1,1.2,0.1,1.7,0.4c0.3,0.5,0.4,1.1,0.4,1.7v56.1c0.3,0.8-0.1,1.8-0.9,2.1
			c-0.4,0.1-0.8,0.1-1.1,0H85.5c-0.6,0.1-1.2-0.1-1.7-0.4c-0.3-0.5-0.4-1.1-0.4-1.7V39.5H74.1z M90.9,0.4c2.6,0,5.1,1,6.9,2.9
			c1.9,1.8,2.9,4.4,2.9,7c0,5.5-4.5,9.9-10,9.9c-2.6,0-5.1-1-6.9-2.9c-1.9-1.9-2.9-4.5-2.9-7.1c0-2.6,1-5.1,2.9-6.9
			C85.6,1.4,88.2,0.3,90.9,0.4z"/>
		<path class="st0" d="M128.7,0.2c0.4-0.1,0.7-0.2,1.1-0.2h0.4c0.8,0,1.2,0.7,1.2,2.1v69.8c0,0.4,0,0.7,0.1,1.1
			c0,0.2,0.1,0.5,0.2,0.7c0.3,1.4,1.5,2.5,3,2.4c0.6,0,1.3-0.1,1.9-0.2c0.6-0.1,1.3-0.3,2.1-0.6c0.3-0.1,0.6-0.1,0.9-0.1
			c0.5,0,0.9,0.3,1,0.7l2.5,10.1l0.1,0.5c0.1,0.2,0.1,0.3,0.1,0.5c0,0.4-0.4,0.8-1.1,1.2c-0.9,0.5-1.9,0.9-2.9,1.1
			c-1.3,0.4-2.7,0.6-4,0.8c-1.5,0.2-2.9,0.3-4.4,0.3c-7.2,0-11.8-3-13.8-8.9c-0.2-0.7-0.4-1.4-0.6-2c-0.2-0.8-0.3-1.7-0.3-2.5
			c0-1.1-0.1-2.4-0.1-4s-0.1-3.7-0.1-6.4v-62c-0.1-1.1,0.7-2.2,1.8-2.3L128.7,0.2z"/>
		<path class="st0" d="M161.4,62.5c0.2,5.3,1.3,9.2,3.5,11.7c2.2,2.5,5.5,3.7,10.1,3.7c4.9-0.1,9.7-1.4,13.9-3.8
			c0.5-0.3,1-0.5,1.6-0.5c0.5,0,0.9,0.4,1.3,1.1l3.1,7.3c0.2,0.4,0.3,0.7,0.3,0.8c0,0.2,0.1,0.4,0.1,0.6c0,0.7-0.4,1.3-1,1.7
			c-1.3,0.8-2.6,1.5-4,2.1c-5.3,2.3-11.1,3.5-16.8,3.4c-7.9,0-14-2-18.2-6c-3.1-2.9-5.5-6.6-6.8-10.6c-1.7-4.9-2.5-10-2.4-15.1
			c-0.1-4.5,0.6-9,1.9-13.4c1.1-3.8,3-7.3,5.4-10.4c2.3-2.8,5.2-5.1,8.4-6.6c3.4-1.6,7.2-2.4,11-2.3c16.1,0,24.2,11.1,24.2,33.3
			c0.1,0.8-0.1,1.7-0.5,2.4c-0.6,0.5-1.4,0.7-2.2,0.6H161.4z M180.7,51.1c-0.2-5-0.9-8.6-2.3-10.7c-1.3-2.1-3.6-3.2-6.6-3.2
			c-3.1,0-5.4,1.1-6.9,3.2c-1.5,2.1-2.6,5.7-3.2,10.7H180.7z"/>
		<path class="st1" d="M0.8,113c67.6-15.8,137.9-16,205.5-0.5"/>
	</g>
</g>
</svg>
